<?xml version="1.0" encoding="UTF-8"?>
<!DOCTYPE svg PUBLIC "-//W3C//DTD SVG 1.1//EN" "http://www.w3.org/Graphics/SVG/1.1/DTD/svg11.dtd">
<!-- Creator: CorelDRAW 2020 (64-Bit) -->
<svg xmlns="http://www.w3.org/2000/svg" xml:space="preserve" width="8.5in" height="11in" version="1.1" style="shape-rendering:geometricPrecision; text-rendering:geometricPrecision; image-rendering:optimizeQuality; fill-rule:evenodd; clip-rule:evenodd"
viewBox="0 0 8500 11000"
 xmlns:xlink="http://www.w3.org/1999/xlink"
 xmlns:xodm="http://www.corel.com/coreldraw/odm/2003">
 <defs>
  <style type="text/css">
   <![CDATA[
    .fil0 {fill:white;fill-rule:nonzero}
   ]]>
  </style>
 </defs>
 <g id="Layer_x0020_1">
  <metadata id="CorelCorpID_0Corel-Layer"/>
  <g id="_872703024">
   <g>
    <path class="fil0" d="M1733.15 5552.54c-2.33,-142.28 59.12,-253.04 184.23,-332.32 -70.56,-102.6 -174.61,-160.26 -312.2,-173.15 -48.94,-4.6 -111.52,6.97 -187.64,35 -81.88,30.36 -127.98,45.45 -138.2,45.45 -21.61,0 -63.11,-12.76 -124.61,-38.48 -61.36,-25.65 -113.72,-38.47 -156.94,-38.47 -72.78,1.19 -140.49,21.3 -203.02,60.33 -62.55,39.08 -112.57,92.46 -150.08,160.02 -47.82,83.99 -71.65,184.28 -71.65,300.84 0,104.93 17.57,209.83 52.82,314.83 32.98,100.29 75.13,188.31 126.25,264.03 45.45,68.81 85.4,118.94 119.41,150.46 48.96,48.94 98.94,72.31 150.2,69.93 32.96,-1.21 76.14,-13.43 129.61,-36.81 50,-22.04 100.09,-33.14 150.15,-33.14 46.61,0 94.91,11.03 145.02,33.14 55.69,23.39 101.23,35.02 136.48,35.02 52.33,-2.29 101.2,-25.05 146.76,-68.14 15.85,-14.06 33.23,-33.27 51.97,-57.76 21.38,-28.24 42.58,-57.97 62.26,-87.48 16.51,-25.43 32.34,-52.06 46.91,-78.69 15.84,-28.73 29.85,-58.68 41.83,-89.21 5.63,-12.83 10.74,-25.92 15.34,-39.33 4.53,-13.41 9.08,-27.06 13.63,-41.07 -42.08,-18.61 -80.2,-44.95 -114.3,-78.79 -74.98,-74.5 -113.09,-166.65 -114.24,-276.24l0.03 0.04zm1237.11 311.78l-8.28 0 -346.46 -791.76 -272.07 0 0 1277.46 237.12 0 0 -827.34 11.01 0 289.54 656.97 166.3 0 288.62 -656.97 11.05 0 0 827.34 239.86 0 0 -1277.46 -270.22 0 -346.46 791.76zm-1452.12 -958.89c60.31,-75.8 90.47,-157.41 90.47,-244.88l0 -17.46c0,-5.87 -0.58,-11.68 -1.7,-17.51 -42.11,2.33 -86.72,15.76 -133.96,40.2 -47.17,24.53 -86.11,55.47 -116.88,92.71 -61.39,73.52 -92.13,152.17 -92.13,236.13l0 16.57c0,5.29 0.58,10.81 1.7,16.68 94.43,9.3 178.6,-31.52 252.5,-122.44l0 0zm4840.18 167.13l266.52 0 0 1277.48 -266.52 0 0 -1277.48zm1071.46 203.06c158.07,0 241.65,121.68 241.65,252.7l255.57 0 0 -27.15c0,-247.06 -188.43,-452.92 -499.08,-452.92 -332.72,0 -531.21,218.98 -531.21,592.42l0 144.15c0,373.33 196.65,589.59 530.27,589.59 318.93,0 500.02,-208.78 500.02,-440.83l0 -28.07 -255.55 0c0,132.02 -81.77,241.49 -239.79,241.49 -161.81,0 -264.77,-115.13 -264.77,-361.31l0 -144.03c0,-245.33 103.9,-366.04 262.88,-366.04l0 0zm-2823.5 603.63c0,171.31 -100.17,265.8 -247.21,265.8 -147.98,0 -248.13,-93.58 -248.13,-265.8l0 -806.7 -264.72 0 0 844.14c0,272.41 192.98,457.69 512.81,457.69 318.93,0 512.83,-185.28 512.83,-457.69l0 -844.14 -265.57 0 0 806.7zm1147.36 -273.24l-190.22 -43c-112.11,-23.48 -170.94,-73.05 -170.94,-147.01 0,-98.22 79.93,-160.02 208.67,-160.02 145.2,0 217.8,83.3 224.2,173.16l248.15 0c-2.76,-225.57 -191.13,-382.79 -471.48,-382.79 -265.57,0 -475.14,139.48 -475.14,390.28 0,217.12 147.08,318.13 323.53,356.6l188.38 43.94c126.83,29.01 191.16,71.17 191.16,158.13 0,99.28 -79.06,166.68 -226.99,166.68 -159,0 -242.66,-84.26 -249.96,-178.81l-255.53 0c3.74,180.65 123.2,391.22 492.67,391.22 310.61,0 502.74,-154.41 502.74,-405.32 -0.09,-232.1 -155.42,-322.88 -339.25,-363.06z"/>
   </g>
  </g>
 </g>
</svg>
