<?xml version="1.0" encoding="UTF-8"?>
<!DOCTYPE svg PUBLIC "-//W3C//DTD SVG 1.1//EN" "http://www.w3.org/Graphics/SVG/1.1/DTD/svg11.dtd">
<!-- Creator: CorelDRAW 2020 (64-Bit) -->
<svg xmlns="http://www.w3.org/2000/svg" xml:space="preserve" width="8.5in" height="11in" version="1.1" style="shape-rendering:geometricPrecision; text-rendering:geometricPrecision; image-rendering:optimizeQuality; fill-rule:evenodd; clip-rule:evenodd"
viewBox="0 0 8500 11000"
 xmlns:xlink="http://www.w3.org/1999/xlink"
 xmlns:xodm="http://www.corel.com/coreldraw/odm/2003">
 <defs>
  <style type="text/css">
   <![CDATA[
    .fil3 {fill:black}
    .fil1 {fill:#E5F2FA}
    .fil2 {fill:white}
    .fil0 {fill:#2EBD59;fill-rule:nonzero}
   ]]>
  </style>
 </defs>
 <g id="Layer_x0020_1">
  <metadata id="CorelCorpID_0Corel-Layer"/>
  <g id="_943242448">
   <path class="fil0" d="M1462.24 4305.67c-659.59,0 -1194.33,534.72 -1194.33,1194.31 0,659.67 534.73,1194.35 1194.33,1194.35 659.63,0 1194.33,-534.69 1194.33,-1194.35 0,-659.56 -534.67,-1194.26 -1194.34,-1194.26l0.02 -0.06 0 0zm547.71 1722.54c-21.45,35.19 -67.29,46.21 -102.36,24.77 -280.46,-171.41 -633.47,-210.13 -1049.2,-115.17 -40.06,9.19 -79.99,-15.93 -89.12,-55.98 -9.17,-40.06 15.83,-80 55.99,-89.12 454.95,-104.01 845.2,-59.24 1160,133.12 35.08,21.54 46.21,67.32 24.67,102.4l0.02 -0.03 0 0zm146.18 -325.15c-27.01,43.82 -84.31,57.57 -128.08,30.66 -320.96,-197.3 -810.39,-254.44 -1190.11,-139.18 -49.25,14.87 -101.26,-12.88 -116.2,-62.04 -14.83,-49.24 12.93,-101.16 62.09,-116.13 433.74,-131.61 972.96,-67.86 1341.62,158.69 43.78,26.95 57.62,84.29 30.67,128.01l0.01 -0.01 0 0zm12.55 -338.63c-384.98,-228.63 -1020,-249.65 -1387.52,-138.11 -59.02,17.9 -121.43,-15.42 -139.31,-74.43 -17.89,-59.04 15.4,-121.41 74.46,-139.35 421.88,-128.07 1123.2,-103.33 1566.37,159.76 53.08,31.5 70.5,100.06 39.04,153.07 -31.38,53.08 -100.12,70.58 -153.03,39.06l-0.02 0zm1348.6 43.81c-206.21,-49.17 -242.92,-83.69 -242.92,-156.21 0,-68.52 64.5,-114.62 160.43,-114.62 92.99,0 185.19,35.01 281.86,107.09 2.93,2.18 6.59,3.05 10.2,2.48 3.61,-0.54 6.8,-2.52 8.91,-5.5l100.69 -141.93c4.14,-5.85 3.01,-13.91 -2.57,-18.37 -115.05,-92.31 -244.6,-137.2 -396.04,-137.2 -222.66,0 -378.18,133.62 -378.18,324.8 0,205.01 134.16,277.61 366,333.64 197.33,45.45 230.63,83.54 230.63,151.61 0,75.43 -67.35,122.32 -175.72,122.32 -120.37,0 -218.55,-40.55 -328.38,-135.66 -2.72,-2.35 -6.46,-3.43 -9.91,-3.22 -3.64,0.3 -6.96,1.98 -9.27,4.76l-112.9 134.36c-4.74,5.57 -4.14,13.9 1.34,18.72 127.78,114.08 284.95,174.34 454.55,174.34 239.93,0 394.96,-131.09 394.96,-334 0.43,-171.28 -102.11,-266.13 -353.26,-327.22l-0.43 -0.19 0 0zm896.5 -203.37c-104,0 -189.3,40.96 -259.64,124.89l0 -94.47c0,-7.46 -6.05,-13.54 -13.49,-13.54l-184.65 0c-7.46,0 -13.49,6.07 -13.49,13.54l0 1049.7c0,7.46 6.03,13.54 13.49,13.54l184.65 0c7.44,0 13.49,-6.07 13.49,-13.54l0 -331.34c70.35,78.95 155.67,117.53 259.64,117.53 193.23,0 388.85,-148.75 388.85,-433.1 0.29,-284.43 -195.39,-433.22 -388.63,-433.22l-0.21 0.01 0 0zm174.13 433.2c0,144.8 -89.19,245.84 -216.91,245.84 -126.26,0 -221.5,-105.64 -221.5,-245.84 0,-140.19 95.24,-245.85 221.5,-245.85 125.65,-0.02 216.92,103.35 216.92,245.83l-0.02 0.02 0 0zm716.09 -433.2c-248.85,0 -443.81,191.62 -443.81,436.3 0,242.01 193.62,431.62 440.76,431.62 249.74,0 445.3,-190.98 445.3,-434.71 0,-242.89 -194.24,-433.18 -442.26,-433.18l0.01 -0.03 0 0zm0 680.49c-132.36,0 -232.15,-106.35 -232.15,-247.35 0,-141.61 96.34,-244.37 229.1,-244.37 133.22,0 233.68,106.35 233.68,247.46 0,141.57 -96.98,244.26 -230.61,244.26l-0.02 0zm973.65 -663.6l-203.19 0 0 -207.74c0,-7.44 -6.02,-13.52 -13.48,-13.52l-184.62 0c-7.47,0 -13.53,6.07 -13.53,13.52l0 207.74 -88.78 0c-7.43,0 -13.45,6.07 -13.45,13.54l0 158.69c0,7.44 6.02,13.53 13.45,13.53l88.78 0 0 410.61c0,165.94 82.59,250.07 245.47,250.07 66.23,0 121.18,-13.68 172.97,-43.04 4.2,-2.35 6.81,-6.89 6.81,-11.71l0 -151.12c0,-4.67 -2.43,-9.07 -6.42,-11.51 -4.02,-2.53 -9.03,-2.65 -13.15,-0.61 -35.57,17.9 -69.95,26.16 -108.39,26.16 -59.24,0 -85.67,-26.9 -85.67,-87.19l0 -381.59 203.19 0c7.46,0 13.46,-6.08 13.46,-13.54l0 -158.68c0.29,-7.46 -5.7,-13.54 -13.26,-13.54l-0.2 -0.09 0 0zm707.96 0.81l0 -25.52c0,-75.06 28.78,-108.53 93.33,-108.53 38.49,0 69.41,7.64 104.04,19.2 4.26,1.34 8.71,0.67 12.18,-1.89 3.57,-2.55 5.58,-6.65 5.58,-10.98l0 -155.59c0,-5.95 -3.82,-11.21 -9.56,-12.96 -36.58,-10.89 -83.39,-22.05 -153.47,-22.05 -170.54,0 -260.69,96.04 -260.69,277.63l0 39.08 -88.71 0c-7.44,0 -13.55,6.07 -13.55,13.52l0 159.5c0,7.44 6.1,13.54 13.55,13.54l88.71 0 0 633.35c0,7.46 6.02,13.53 13.46,13.53l184.65 0c7.46,0 13.54,-6.07 13.54,-13.53l0 -633.31 172.4 0 264.09 633.2c-29.98,66.53 -59.46,79.77 -99.7,79.77 -32.53,0 -66.79,-9.71 -101.82,-28.88 -3.29,-1.81 -7.2,-2.11 -10.75,-1.01 -3.52,1.24 -6.49,3.87 -7.98,7.29l-62.58 137.3c-2.98,6.49 -0.43,14.11 5.82,17.47 65.33,35.39 124.31,50.49 197.2,50.49 136.34,0 211.7,-63.51 278.13,-234.37l320.33 -827.76c1.61,-4.17 1.13,-8.87 -1.43,-12.56 -2.54,-3.67 -6.63,-5.88 -11.11,-5.88l-192.22 0c-5.76,0 -10.91,3.66 -12.79,9.07l-196.91 562.46 -215.68 -562.83c-1.97,-5.23 -7.02,-8.7 -12.61,-8.7l-315.47 0 0.04 -0.04zm-410.46 -0.81l-184.65 0c-7.46,0 -13.53,6.07 -13.53,13.54l0 805.58c0,7.46 6.07,13.54 13.53,13.54l184.65 0c7.44,0 13.54,-6.08 13.54,-13.54l0 -805.52c0,-0.01 0,-0.02 0,-0.03 0,-7.46 -6.05,-13.5 -13.5,-13.5 -0.02,0 -0.03,0 -0.05,0l0.02 -0.06 0 0zm-91.28 -366.8c-73.15,0 -132.51,59.22 -132.51,132.37 0,73.19 59.37,132.48 132.51,132.48 73.12,0 132.42,-59.29 132.42,-132.48 0,-73.14 -59.33,-132.37 -132.35,-132.37l-0.07 0zm1617.57 625.81c-73.07,0 -129.94,-58.69 -129.94,-129.95 0,-71.27 57.6,-130.62 130.62,-130.62 73.08,0 129.94,58.67 129.94,129.88 0,71.27 -57.62,130.69 -130.64,130.69l0.01 0zm0.71 -247.65c-66.56,0 -116.92,52.91 -116.92,117.7 0,64.76 50,116.96 116.25,116.96 66.55,0 116.96,-52.87 116.96,-117.7 0,-64.76 -50.06,-116.96 -116.24,-116.96l-0.06 0zm28.81 130.32l36.76 51.46 -30.99 0 -33.09 -47.2 -28.45 0 0 47.2 -25.94 0 0 -136.4 60.83 0c31.69,0 52.52,16.22 52.52,43.52 0.14,22.36 -12.83,36.02 -31.52,41.43l-0.11 0 0 0zm-21.96 -61.54l-33.83 0 0 43.14 33.83 0c16.88,0 26.96,-8.26 26.96,-21.59 0,-14.04 -10.13,-21.55 -26.95,-21.55l-0.01 0 0 0z"/>
   <path class="fil1" d="M2282.7 5172.29c-443.17,-263.09 -1144.5,-287.83 -1566.38,-159.76 -59.06,17.94 -92.35,80.31 -74.46,139.35 17.88,59.01 80.3,92.33 139.31,74.43 367.51,-111.54 1002.54,-90.52 1387.54,138.11 52.91,31.52 121.65,14.02 153.03,-39.07 31.46,-53.01 14.05,-121.57 -39.03,-153.07z"/>
   <path class="fil1" d="M2125.46 5575.06c-368.67,-226.55 -907.88,-290.3 -1341.63,-158.69 -49.15,14.98 -76.93,66.89 -62.09,116.14 14.95,49.16 66.96,76.91 116.2,62.04 379.72,-115.27 869.15,-58.12 1190.11,139.18 43.77,26.91 101.07,13.16 128.07,-30.65 26.96,-43.73 13.12,-101.06 -30.67,-128.02z"/>
   <path class="fil2" d="M781.17 5226.31c367.51,-111.54 1002.54,-90.52 1387.54,138.11 52.91,31.52 121.65,14.02 153.03,-39.07 31.46,-53.01 14.05,-121.57 -39.03,-153.07 -443.17,-263.09 -1144.5,-287.83 -1566.38,-159.76 -59.06,17.94 -92.35,80.31 -74.46,139.35 17.88,59.01 80.3,92.33 139.31,74.43z"/>
   <path class="fil2" d="M837.94 5594.54c379.72,-115.27 869.15,-58.12 1190.11,139.18 43.77,26.91 101.07,13.16 128.07,-30.65 26.96,-43.73 13.12,-101.06 -30.67,-128.02 -368.67,-226.55 -907.88,-290.3 -1341.63,-158.69 -49.15,14.98 -76.93,66.89 -62.09,116.14 14.95,49.16 66.96,76.91 116.2,62.04z"/>
   <path class="fil2" d="M1985.26 5925.84c-314.8,-192.37 -705.05,-237.13 -1160,-133.12 -40.16,9.13 -65.16,49.06 -55.99,89.12 9.13,40.05 49.06,65.16 89.12,55.98 415.74,-94.97 768.74,-56.25 1049.2,115.17 35.07,21.43 80.91,10.41 102.34,-24.75 21.53,-35.08 10.41,-80.86 -24.67,-102.4z"/>
  </g>
  <path class="fil1" d="M781.17 5226.31c367.51,-111.54 1002.54,-90.52 1387.54,138.11 52.91,31.52 121.65,14.02 153.03,-39.06 31.46,-53.01 14.05,-121.57 -39.04,-153.07 -443.17,-263.09 -1144.5,-287.84 -1566.38,-159.77 -59.06,17.95 -92.35,80.31 -74.46,139.36 17.89,59.02 80.3,92.33 139.31,74.43z"/>
  <path class="fil3" d="M781.17 5226.31c367.51,-111.54 1002.54,-90.52 1387.54,138.11 52.91,31.52 121.65,14.02 153.03,-39.06 31.46,-53.01 14.05,-121.57 -39.04,-153.07 -443.17,-263.09 -1144.5,-287.84 -1566.38,-159.77 -59.06,17.95 -92.35,80.31 -74.46,139.36 17.89,59.02 80.3,92.33 139.31,74.43z"/>
  <path class="fil3" d="M2125.46 5575.06c-368.67,-226.55 -907.88,-290.3 -1341.63,-158.69 -49.15,14.97 -76.93,66.88 -62.09,116.13 14.94,49.16 66.96,76.92 116.21,62.04 379.72,-115.27 869.14,-58.12 1190.11,139.17 43.77,26.91 101.07,13.17 128.07,-30.64 26.96,-43.73 13.12,-101.06 -30.67,-128.02z"/>
  <path class="fil3" d="M1985.26 5925.84c-314.8,-192.37 -705.05,-237.13 -1160,-133.12 -40.16,9.13 -65.16,49.06 -55.99,89.12 9.13,40.05 49.06,65.16 89.12,55.98 415.73,-94.97 768.74,-56.25 1049.2,115.17 35.07,21.43 80.91,10.41 102.35,-24.75 21.53,-35.08 10.41,-80.86 -24.68,-102.4z"/>
 </g>
</svg>
