<?xml version="1.0" encoding="UTF-8"?>
<!DOCTYPE svg PUBLIC "-//W3C//DTD SVG 1.1//EN" "http://www.w3.org/Graphics/SVG/1.1/DTD/svg11.dtd">
<!-- Creator: CorelDRAW 2020 (64-Bit) -->
<svg xmlns="http://www.w3.org/2000/svg" xml:space="preserve" width="8.5in" height="11in" version="1.1" style="shape-rendering:geometricPrecision; text-rendering:geometricPrecision; image-rendering:optimizeQuality; fill-rule:evenodd; clip-rule:evenodd"
viewBox="0 0 8500 11000"
 xmlns:xlink="http://www.w3.org/1999/xlink"
 xmlns:xodm="http://www.corel.com/coreldraw/odm/2003">
 <defs>
  <style type="text/css">
   <![CDATA[
    .fil1 {fill:white}
    .fil0 {fill:#2787F5;fill-rule:nonzero}
    .fil2 {fill:white;fill-rule:nonzero}
   ]]>
  </style>
 </defs>
 <g id="Layer_x0020_1">
  <metadata id="CorelCorpID_0Corel-Layer"/>
  <path class="fil0" d="M742.32 5474.26c0,-279.1 0,-418.65 86.7,-505.38 86.7,-86.73 226.28,-86.7 505.38,-86.7l51.49 0c279.1,0 418.68,0 505.38,86.7 86.7,86.72 86.7,226.28 86.7,505.38l0 51.48c0,279.1 0,418.68 -86.7,505.38 -86.73,86.7 -226.28,86.7 -505.38,86.7l-51.49 0c-279.1,0 -418.65,0 -505.38,-86.7 -86.7,-86.73 -86.7,-226.28 -86.7,-505.38l0 -51.49z"/>
  <path class="fil1" d="M1076.98 5268.31l-90.1 0c-25.74,0 -30.89,12.1 -30.89,25.48 0,23.87 30.56,142.23 142.26,298.77 74.47,106.91 179.4,164.86 274.88,164.86 57.28,0 64.35,-12.87 64.35,-35.04l0 -80.8c0,-25.74 5.43,-30.89 23.58,-30.89 13.36,0 36.27,6.69 89.74,58.23 61.11,61.09 71.18,88.5 105.54,88.5l90.1 0c25.77,0 38.64,-12.87 31.23,-38.28 -8.14,-25.31 -37.33,-62.04 -76.02,-105.57 -21,-24.82 -52.52,-51.56 -62.04,-64.93 -13.39,-17.17 -9.58,-24.81 0,-40.08 0,0 109.77,-154.64 121.25,-207.13 5.72,-19.1 0,-33.13 -27.29,-33.13l-90.1 0c-22.91,0 -33.46,12.1 -39.2,25.48 0,0 -45.82,111.67 -110.74,184.22 -21.01,21 -30.56,27.7 -42.01,27.7 -5.74,0 -14.03,-6.69 -14.03,-25.77l0 -178.5c0,-22.91 -6.64,-33.13 -25.74,-33.13l-141.61 0c-14.34,0 -22.94,10.63 -22.94,20.72 0,21.7 32.44,26.72 35.78,87.78l0 132.7c0,29.09 -5.22,34.37 -16.68,34.37 -30.56,0 -104.87,-112.19 -148.95,-240.54 -8.65,-25 -17.3,-35.04 -40.36,-35.04z"/>
  <path class="fil2" d="M2850.47 5489.19c48.99,-22.91 80.57,-61.01 80.57,-119.81 0,-89.28 -81.66,-152.45 -199.25,-152.45l-271.15 0 0 566.24 283.09 0c121.97,0 206.92,-66.41 206.92,-156.8 0,-68.6 -44.66,-119.78 -100.19,-137.21l0 0.03zm-264.61 -168.8l145.91 0c43.56,0 74.06,26.13 74.06,62.04 0,35.91 -30.51,61.01 -74.06,61.01l-145.91 0 0 -123.05zm157.88 359.34l-157.88 0 0 -138.29 157.88 0c49.01,0 81.68,28.32 81.68,69.69 0,41.37 -32.67,68.61 -81.66,68.61l-0.02 0zm672.63 103.43l164.42 0 -260.26 -293.98 238.48 -272.26 -149.18 0 -189.46 219.97 -30.51 0 0 -219.97 -125.21 0 0 566.24 125.21 0 0 -225.4 30.51 0 196 225.4zm484.04 10.89c177.5,0 302.73,-121.97 302.73,-293.98 0,-172.01 -125.24,-294.03 -302.73,-294.03 -177.5,0 -302.71,121.97 -302.71,294.01 0,172.04 125.21,294.01 302.71,294.01zm0 -114.32c-102.35,0 -172.04,-72.95 -172.04,-179.69 0,-106.73 69.69,-179.69 172.04,-179.69 102.38,0 172.06,72.98 172.06,179.69 0,106.7 -69.69,179.69 -172.06,179.69zm790.53 -462.8l0 223.24 -253.72 0 0 -223.24 -125.21 0 0 566.24 125.21 0 0 -228.67 253.72 0 0 228.67 125.24 0 0 -566.24 -125.24 0zm408.1 566.24l125.24 0 0 -451.89 196.01 0 0 -114.35 -517.25 0 0 114.35 196.01 0 0 451.89zm617.8 -577.13c-109.97,0 -206.89,56.63 -235.21,154.64l115.43 19.59c17.43,-34.86 56.63,-67.52 113.24,-67.52 68.61,0 108.89,49.02 114.35,123.05l-121.97 0c-166.61,0 -249.37,72.95 -249.37,177.5 0,105.62 81.68,180.76 197.11,180.76 92.55,0 154.61,-53.37 181.85,-100.19l26.13 89.33 92.57 0 0 -318.03c0,-164.42 -89.3,-259.15 -234.13,-259.15l0 0.03zm-37.02 482.39c-60.98,0 -100.19,-31.59 -100.19,-80.57 0,-43.56 31.59,-74.06 127.4,-74.06l118.7 0c0,92.57 -58.8,154.64 -145.91,154.64l0 0zm758.72 94.73l164.42 0 -260.26 -293.98 238.48 -272.26 -149.18 0 -189.47 219.97 -30.5 0 0 -219.97 -125.21 0 0 566.24 125.21 0 0 -225.4 30.5 0 196 225.4zm376.82 0l125.24 0 0 -451.89 196 0 0 -114.35 -517.25 0 0 114.35 196 0 0 451.89zm942.31 -289.66c0,-163.34 -121.97,-287.47 -294.01,-287.47 -172.06,0 -294.01,123.05 -294.01,294.01 0,170.96 121.94,294.01 294.01,294.01 117.59,0 228.67,-55.53 271.12,-163.34l-117.59 -19.59c-27.23,40.29 -79.49,68.61 -145.91,68.61 -95.84,0 -158.98,-58.82 -170.96,-145.94l455.16 0c1.08,-11.97 2.19,-25.02 2.19,-40.29zm-294.01 -178.57c78.39,0 137.19,50.09 157.88,120.86l-313.6 0c20.67,-72.96 79.5,-120.86 155.72,-120.86l0 0z"/>
 </g>
</svg>
