<?xml version="1.0" encoding="UTF-8"?>
<!DOCTYPE svg PUBLIC "-//W3C//DTD SVG 1.1//EN" "http://www.w3.org/Graphics/SVG/1.1/DTD/svg11.dtd">
<!-- Creator: CorelDRAW 2020 (64-Bit) -->
<svg xmlns="http://www.w3.org/2000/svg" xml:space="preserve" width="8.5in" height="11in" version="1.1" style="shape-rendering:geometricPrecision; text-rendering:geometricPrecision; image-rendering:optimizeQuality; fill-rule:evenodd; clip-rule:evenodd"
viewBox="0 0 8500 11000"
 xmlns:xlink="http://www.w3.org/1999/xlink"
 xmlns:xodm="http://www.corel.com/coreldraw/odm/2003">
 <defs>
  <style type="text/css">
   <![CDATA[
    .fil0 {fill:red}
    .fil1 {fill:white}
   ]]>
  </style>
 </defs>
 <g id="Layer_x0020_1">
  <metadata id="CorelCorpID_0Corel-Layer"/>
  <path class="fil0" d="M2777.73 4897.96c-28.65,-107.44 -113.41,-192.19 -221.24,-221.24 -194.97,-52.13 -977.26,-52.13 -977.26,-52.13 0,0 -781.89,0 -977.27,52.13 -107.43,28.65 -192.19,113.41 -221.24,221.24 -52.13,194.98 -52.13,602.03 -52.13,602.03 0,0 0,407.07 52.13,602.04 28.65,107.44 113.41,192.19 221.24,221.24 195.37,52.13 977.27,52.13 977.27,52.13 0,0 782.29,0 977.26,-52.13 107.44,-28.65 192.19,-113.41 221.24,-221.24 52.13,-194.97 52.13,-602.03 52.13,-602.03 0,0 0,-407.07 -52.13,-602.04z"/>
  <polygon class="fil1" points="1329.35,5875.23 1979.13,5499.99 1329.35,5124.77 "/>
  <path class="fil1" d="M3959.13 6217.43c-49.35,-33.42 -84.76,-85.15 -105.44,-155.57 -20.7,-70.43 -31.44,-163.94 -31.44,-280.93l0 -159.16c0,-118.17 11.94,-212.87 35.81,-284.51 23.87,-71.62 61.28,-123.74 111.81,-156.37 50.54,-32.63 117,-49.33 199.35,-49.33 81.18,0 146.04,16.71 194.98,50.13 48.94,33.42 84.76,85.55 107.44,156.37 22.68,70.83 33.83,165.54 33.83,283.31l0 159.17c0,116.98 -11.15,210.89 -33.04,281.72 -21.88,70.83 -57.69,122.96 -107.43,155.58 -49.35,32.63 -116.59,49.35 -201.35,49.35 -86.74,0.38 -155.18,-16.33 -204.52,-49.76l0 0zm277.33 -171.89c13.53,-35.81 20.7,-94.31 20.7,-175.08l0 -341.81c0,-78.8 -6.76,-136.09 -20.7,-172.69 -13.52,-36.21 -37.8,-54.52 -72.42,-54.52 -33.42,0 -56.9,18.3 -70.82,54.52 -13.53,36.2 -20.69,93.9 -20.69,172.69l0 341.81c0,81.17 6.37,139.67 19.5,175.08 13.13,35.81 37.01,53.71 71.63,53.71 35.01,0 58.89,-17.9 72.81,-53.71zm3521.5 -261.83l0 55.32c0,70.42 2,122.94 6.37,158.36 3.97,35.02 12.73,60.88 25.86,76.81 13.13,15.91 33.42,24.27 60.87,24.27 37.02,0 62.48,-14.32 76.01,-42.98 13.53,-28.65 21.08,-76.4 22.28,-143.24l212.87 12.34c1.2,9.54 1.59,22.67 1.59,39.38 0,101.48 -27.86,177.07 -83.17,227.21 -55.31,50.14 -133.69,75.21 -235.16,75.21 -121.76,0 -206.91,-38.2 -255.86,-114.6 -48.94,-76.4 -73.21,-194.18 -73.21,-354.13l0 -191.39c0,-164.74 25.46,-284.52 75.99,-360.5 50.54,-75.61 137.28,-113.41 260.24,-113.41 84.75,0 149.61,15.52 194.96,46.56 45.37,31.04 77.2,79.18 95.91,144.84 18.3,65.65 27.85,156.39 27.85,271.77l0 187.82 -413.43 -0 0 0.39zm31.43 -461.57c-12.34,15.52 -20.69,40.98 -25.07,76.01 -4.38,35.01 -6.37,88.74 -6.37,159.95l0 78.8 180.65 0 0 -78.8c0,-70.43 -2.39,-123.75 -7.17,-159.95 -4.77,-36.22 -13.52,-62.07 -25.86,-76.8 -12.34,-14.73 -31.83,-22.28 -58.09,-22.28 -26.26,-0.4 -45.76,7.56 -58.09,23.07l-0 0zm-4431.12 440.89l-280.91 -1014.27 245.1 0 98.29 459.59c25.07,113.4 43.37,209.7 55.31,289.67l7.16 0c8.36,-57.3 26.66,-153.2 55.32,-288.09l101.86 -461.57 245.11 0 -284.1 1014.67 0 486.64 -243.13 0 0 -486.64zm1944.19 -609.99l0 1096.23 -192.99 0 -21.49 -134.09 -5.17 0c-52.52,101.46 -131.31,152 -235.96,152 -72.81,0 -126.53,-23.88 -161.14,-71.63 -34.62,-47.75 -51.73,-122.16 -51.73,-223.62l0 -818.9 246.7 0 0 804.96c0,48.94 5.17,83.97 15.92,104.66 10.74,20.69 28.65,31.43 53.71,31.43 21.49,0 42.18,-6.38 61.67,-19.5 19.5,-13.13 34.22,-29.85 43.78,-50.14l0 -871.43 246.7 0.01zm1266.15 0l0 1096.23 -192.99 0 -21.49 -134.09 -5.17 0c-52.52,101.46 -131.31,152 -235.96,152 -72.81,0 -126.54,-23.88 -161.15,-71.63 -34.62,-47.75 -51.73,-122.16 -51.73,-223.62l0 -818.9 246.7 0 0 804.96c0,48.94 5.17,83.97 15.91,104.66 10.74,20.69 28.65,31.43 53.72,31.43 21.49,0 42.18,-6.38 61.67,-19.5 19.5,-13.13 34.22,-29.85 43.77,-50.14l0 -871.43 246.7 0.01z"/>
  <path class="fil1" d="M5973.34 4947.31l-245.11 0 0 1301.95 -241.53 0 0 -1301.95 -245.11 0 0 -198.56 731.35 0 0 198.56 0.4 0zm1412.18 381.19c-15.12,-69.23 -38.99,-119.37 -72.42,-150.4 -33.42,-31.04 -79.17,-46.56 -137.68,-46.56 -45.34,0 -87.53,12.73 -126.93,38.6 -39.39,25.46 -69.63,59.29 -91.12,101.07l-1.98 0 0 -577.77 -237.95 0 0 1556.22 203.72 0 25.07 -103.85 5.18 0c19.09,37.01 47.74,66.05 85.94,87.53 38.2,21.49 80.39,32.24 126.94,32.24 83.56,0 144.83,-38.6 184.24,-115.4 39.38,-76.79 58.89,-196.96 58.89,-360.5l0 -173.49c0.4,-122.56 -7.17,-218.45 -21.89,-287.68l0 -0.01zm-226.41 447.25c0,79.99 -3.19,142.45 -9.94,187.82 -6.38,45.37 -17.51,77.59 -33.03,96.69 -15.53,19.09 -36.22,28.65 -62.48,28.65 -20.3,0 -38.99,-4.77 -56.5,-14.33 -17.11,-9.55 -31.43,-23.87 -42.18,-42.98l0 -622.72c8.36,-29.85 22.69,-54.12 42.98,-73.21 20.29,-19.1 42.17,-28.65 66.04,-28.65 25.07,0 44.56,9.94 58.09,29.44 13.53,19.5 23.09,52.92 28.65,99.08 5.19,46.56 7.96,112.61 7.96,198.56l0 141.66 0.4 0z"/>
 </g>
</svg>
